<svg fill="none" viewBox="0 0 87 43" xmlns="http://www.w3.org/2000/svg">
<path d="m24.431 31.296c0.416 0 0.736 0.192 0.9599 0.576 0.2561 0.384 0.3841 0.912 0.3841 1.584 0 1.28-0.304 2.272-0.912 2.976-1.376 1.696-2.88 3.088-4.512 4.176s-3.504 1.632-5.616 1.632c-6.528 0-9.792-4.592-9.792-13.776 0-1.408 0.048-2.832 0.144-4.272h-1.872c-0.96 0-1.616-0.176-1.968-0.528-0.32-0.352-0.48-0.912-0.48-1.68 0-1.792 0.72-2.688 2.16-2.688h2.736c0.544-3.52 1.376-6.736 2.496-9.648s2.464-5.232 4.032-6.96c1.6-1.728 3.312-2.592 5.136-2.592 1.344 0 2.4 0.592 3.168 1.776 0.768 1.184 1.152 2.672 1.152 4.464 0 4.96-2.08 9.28-6.24 12.96h5.376c0.512 0 0.88 0.112 1.104 0.336s0.336 0.64 0.336 1.248c0 2.208-1.808 3.312-5.424 3.312h-5.856c-0.064 1.6-0.096 2.848-0.096 3.744 0 3.328 0.384 5.664 1.152 7.008 0.8 1.344 2.048 2.016 3.744 2.016 1.376 0 2.592-0.416 3.648-1.248s2.304-2.08 3.744-3.744c0.384-0.448 0.816-0.672 1.296-0.672zm-8.4-26.592c-0.48 0-1.024 0.608-1.632 1.824-0.576 1.184-1.136 2.848-1.68 4.992-0.512 2.112-0.944 4.464-1.296 7.056 1.888-1.632 3.296-3.456 4.224-5.472 0.96-2.048 1.44-3.904 1.44-5.568 0-1.888-0.352-2.832-1.056-2.832zm10.732 37.536c-1.44 0-2.624-0.656-3.552-1.968-0.896-1.344-1.344-3.008-1.344-4.992 0-2.4 0.16-4.592 0.48-6.576 0.32-2.016 0.848-4.144 1.584-6.384 0.32-0.96 0.768-1.648 1.344-2.064s1.488-0.624 2.736-0.624c0.704 0 1.184 0.112 1.44 0.336 0.288 0.224 0.432 0.56 0.432 1.008 0 0.256-0.176 1.12-0.528 2.592-0.32 1.184-0.576 2.256-0.768 3.216-0.64 3.36-0.96 5.6-0.96 6.72 0 0.672 0.08 1.152 0.24 1.44 0.16 0.256 0.416 0.384 0.768 0.384 0.48 0 1.072-0.48 1.776-1.44 0.736-0.96 1.504-2.416 2.304-4.368 0.832-1.952 1.632-4.352 2.4-7.2 0.256-0.96 0.64-1.648 1.152-2.064 0.544-0.416 1.344-0.624 2.4-0.624 0.736 0 1.248 0.096 1.536 0.288 0.288 0.16 0.432 0.48 0.432 0.96 0 0.8-0.4 2.992-1.2 6.576-0.896 4.096-1.344 6.624-1.344 7.584 0 0.608 0.128 1.088 0.384 1.44 0.256 0.32 0.592 0.48 1.008 0.48 0.64 0 1.392-0.384 2.256-1.152 0.896-0.8 2.08-2.08 3.552-3.84 0.384-0.448 0.816-0.672 1.296-0.672 0.416 0 0.736 0.192 0.96 0.576 0.256 0.384 0.384 0.912 0.384 1.584 0 1.28-0.304 2.272-0.912 2.976-1.376 1.696-2.864 3.088-4.464 4.176-1.568 1.088-3.36 1.632-5.376 1.632-1.536 0-2.672-0.592-3.408-1.776-0.704-1.184-1.056-2.848-1.056-4.992-0.544 2.176-1.36 3.856-2.448 5.04-1.088 1.152-2.256 1.728-3.504 1.728zm20.684 0c-1.216 0-2.08-0.64-2.592-1.92-0.48-1.28-0.72-3.328-0.72-6.144 0-4.16 0.592-8.112 1.776-11.856 0.288-0.928 0.752-1.6 1.392-2.016 0.672-0.448 1.6-0.672 2.784-0.672 0.64 0 1.088 0.08 1.344 0.24s0.384 0.464 0.384 0.912c0 0.512-0.24 1.664-0.72 3.456-0.32 1.28-0.576 2.4-0.768 3.36s-0.352 2.144-0.48 3.552c1.056-2.752 2.24-4.992 3.552-6.72s2.592-2.96 3.84-3.696c1.28-0.736 2.448-1.104 3.504-1.104 2.08 0 3.12 1.04 3.12 3.12 0 1.248-0.352 3.504-1.056 6.768-0.608 2.784-0.912 4.624-0.912 5.52 0 1.28 0.464 1.92 1.392 1.92 0.64 0 1.392-0.384 2.256-1.152 0.896-0.8 2.08-2.08 3.552-3.84 0.384-0.448 0.816-0.672 1.296-0.672 0.416 0 0.736 0.192 0.96 0.576 0.256 0.384 0.384 0.912 0.384 1.584 0 1.28-0.304 2.272-0.912 2.976-1.376 1.696-2.864 3.088-4.464 4.176-1.568 1.088-3.36 1.632-5.376 1.632-1.632 0-2.864-0.464-3.696-1.392-0.832-0.96-1.248-2.336-1.248-4.128 0-0.896 0.224-2.496 0.672-4.8 0.416-2.016 0.624-3.408 0.624-4.176 0-0.512-0.176-0.768-0.528-0.768-0.416 0-1.008 0.544-1.776 1.632-0.736 1.056-1.504 2.464-2.304 4.224-0.768 1.76-1.392 3.616-1.872 5.568-0.352 1.504-0.768 2.528-1.248 3.072-0.448 0.512-1.168 0.768-2.16 0.768zm37.588-9.504c0.416 0 0.736 0.192 0.96 0.576 0.256 0.384 0.384 0.912 0.384 1.584 0 1.152-0.272 2.144-0.816 2.976-0.896 1.376-2.08 2.448-3.552 3.216-1.44 0.768-3.168 1.152-5.184 1.152-3.072 0-5.456-0.912-7.152-2.736-1.696-1.856-2.544-4.352-2.544-7.488 0-2.208 0.464-4.256 1.392-6.144 0.928-1.92 2.208-3.44 3.84-4.56 1.664-1.12 3.536-1.68 5.616-1.68 1.856 0 3.344 0.56 4.464 1.68 1.12 1.088 1.68 2.576 1.68 4.464 0 2.208-0.8 4.112-2.4 5.712-1.568 1.568-4.256 2.816-8.064 3.744 0.768 1.472 2.064 2.208 3.888 2.208 1.312 0 2.384-0.304 3.216-0.912 0.864-0.608 1.856-1.632 2.976-3.072 0.384-0.48 0.816-0.72 1.296-0.72zm-7.872-8.4c-1.184 0-2.192 0.688-3.024 2.064-0.8 1.376-1.2 3.04-1.2 4.992v0.096c1.888-0.448 3.376-1.12 4.464-2.016s1.632-1.936 1.632-3.12c0-0.608-0.176-1.088-0.528-1.44-0.32-0.384-0.768-0.576-1.344-0.576z" fill="url(#a)"/>
<defs>
<linearGradient id="a" x1="4" x2="88" y1="22" y2="22" gradientUnits="userSpaceOnUse">
<stop stop-color="#88C0D0" offset="0"/>
<stop stop-color="#81A1C1" offset="1"/>
</linearGradient>
</defs>
</svg>
